<svg width="128" height="128" viewBox="0 0 128 128" fill="none" xmlns="http://www.w3.org/2000/svg">
<g clip-path="url(#clip0_5535_18)">
<rect width="128" height="128" fill="white"/>
<rect width="128" height="128" fill="#03C17B"/>
<path d="M33.3442 49.794C31.4261 38.9161 38.6895 28.543 49.5674 26.6249L108.656 16.206V16.206C110.574 27.0839 103.311 37.457 92.4326 39.3751L33.3442 49.794V49.794Z" fill="white"/>
<path d="M33.1923 78.0575C31.2742 67.1796 38.5376 56.8065 49.4155 54.8884L88.8078 47.9425V47.9425C90.7258 58.8204 83.4625 69.1935 72.5846 71.1116L33.1923 78.0575V78.0575Z" fill="white"/>
<path d="M32.9644 105.453C31.0463 94.5749 38.3097 84.2017 49.1875 82.2837L59.0356 80.5472V80.5472C60.9537 91.4251 53.6903 101.798 42.8124 103.716L32.9644 105.453V105.453Z" fill="white"/>
</g>
<defs>
<clipPath id="clip0_5535_18">
<rect width="128" height="128" fill="white"/>
</clipPath>
</defs>
</svg>
